<svg width="1112" height="210" viewBox="0 0 1112 210" fill="none" xmlns="http://www.w3.org/2000/svg">
<path d="M275.565 32.7233V137.25H299.623V113.192H402.698V91.6233H299.623V54.2923H402.491V32.7233H275.565ZM275.565 156.123V177.899H402.491V156.123H275.565Z" fill="#47D7AC"/>
<path d="M512.411 157.16C492.501 157.16 476.531 152.39 464.71 142.85C452.888 133.31 447.081 120.658 447.081 105.311C447.081 90.1715 452.888 77.9352 464.917 68.1877C476.739 58.4402 492.293 53.4627 511.166 53.4627C536.261 53.4627 555.549 60.9289 569.444 75.6539L590.184 68.3951C571.725 44.5448 545.594 32.7233 511.166 32.7233C487.316 32.7233 467.406 38.9451 451.229 51.1814C432.564 65.0768 423.438 83.1201 423.438 105.311C423.438 127.71 432.564 145.753 450.815 159.649C466.784 171.885 486.901 177.899 511.166 177.899C528.38 177.899 543.312 175.411 555.756 170.226C568.2 165.041 579.399 156.745 589.147 145.338L569.652 134.554C555.756 149.486 536.676 157.16 512.411 157.16Z" fill="#47D7AC"/>
<path d="M773.725 32.7233H610.921V54.4997H773.725V32.7233ZM704.248 74.2022H680.191V177.899H704.248V74.2022Z" fill="#47D7AC"/>
<path d="M926.576 53.8773C911.851 38.3227 892.563 30.2344 868.92 30.2344C845.692 30.2344 826.197 38.3227 811.265 54.0847C798.406 67.7727 791.77 84.7791 791.77 105.104C791.77 125.221 798.406 142.227 811.265 156.123C826.197 171.885 845.692 179.766 868.92 179.766C892.356 179.766 911.643 172.092 926.368 156.33C939.434 142.642 946.071 125.636 946.071 105.104C946.071 84.5716 939.434 67.5653 926.576 53.8773ZM907.288 143.679C897.748 153.427 884.682 158.197 868.92 158.197C853.366 158.197 840.3 153.219 830.552 143.472C820.39 133.517 815.205 120.658 815.205 105.104C815.205 90.5861 819.768 78.5572 828.686 68.8097C838.848 57.6104 852.121 52.0108 868.92 52.0108C884.475 52.0108 897.541 56.7808 907.288 66.5284C917.45 76.0685 922.428 88.9269 922.428 105.104C922.428 121.28 917.45 134.139 907.288 143.679Z" fill="#47D7AC"/>
<path d="M1111.99 177.899L1073.21 121.281C1084.61 119.414 1093.74 115.059 1100.17 108.007C1107.43 100.541 1110.95 90.7937 1110.95 78.35C1110.95 64.4546 1106.6 53.2553 1097.88 44.9595C1089.17 36.8712 1077.15 32.7233 1062.01 32.7233H965.567V54.2923H989.625L965.567 73.3265V177.899H989.625V73.3265H965.567L989.625 54.2923H1026.75L1028.51 84.0672C1028.9 90.6626 1029.12 94.3605 1029.51 100.956L1083.99 177.899H1111.99ZM1058.69 100.956H1029.51L1026.75 54.2923H1056.2C1076.11 54.2923 1086.27 62.3807 1086.27 78.35C1086.27 93.2824 1077.15 100.749 1058.69 100.956Z" fill="#47D7AC"/>
<path fill-rule="evenodd" clip-rule="evenodd" d="M0.0131287 105L83.3519 21.6612L83.3519 0.826547L187.525 105L83.3519 209.173L83.3519 188.339L0.0131287 105ZM31.2652 105L83.3519 157.087L83.3519 177.921L156.273 105L83.3519 32.0786L83.3519 52.9133L31.2652 105ZM125.021 105L83.3519 146.669L83.3519 125.835L62.5172 105L83.3519 84.1653L83.3519 63.3306L125.021 105Z" fill="#47D7AC"/>
</svg>